<?xml version="1.0" encoding="utf-8" ?>
<svg baseProfile="full" height="273px" version="1.1" width="912px" xmlns="http://www.w3.org/2000/svg" xmlns:ev="http://www.w3.org/2001/xml-events" xmlns:xlink="http://www.w3.org/1999/xlink"><defs /><rect fill="white" height="273px" width="912px" x="0" y="0" /><g id="optimized_vector"><rect fill="black" height="1" stroke="none" width="3" x="480" y="24" /><rect fill="black" height="1" stroke="none" width="10" x="477" y="25" /><rect fill="black" height="1" stroke="none" width="16" x="476" y="26" /><rect fill="black" height="1" stroke="none" width="20" x="475" y="27" /><rect fill="black" height="1" stroke="none" width="25" x="475" y="28" /><rect fill="black" height="1" stroke="none" width="30" x="474" y="29" /><rect fill="black" height="1" stroke="none" width="32" x="474" y="30" /><rect fill="black" height="1" stroke="none" width="34" x="473" y="31" /><rect fill="black" height="1" stroke="none" width="35" x="473" y="32" /><rect fill="black" height="1" stroke="none" width="37" x="472" y="33" /><rect fill="black" height="1" stroke="none" width="4" x="415" y="34" /><rect fill="black" height="1" stroke="none" width="37" x="472" y="34" /><rect fill="black" height="1" stroke="none" width="8" x="413" y="35" /><rect fill="black" height="1" stroke="none" width="38" x="471" y="35" /><rect fill="black" height="1" stroke="none" width="10" x="412" y="36" /><rect fill="black" height="1" stroke="none" width="40" x="470" y="36" /><rect fill="black" height="1" stroke="none" width="14" x="410" y="37" /><rect fill="black" height="1" stroke="none" width="40" x="470" y="37" /><rect fill="black" height="1" stroke="none" width="17" x="408" y="38" /><rect fill="black" height="1" stroke="none" width="41" x="469" y="38" /><rect fill="black" height="1" stroke="none" width="19" x="407" y="39" /><rect fill="black" height="1" stroke="none" width="41" x="469" y="39" /><rect fill="black" height="1" stroke="none" width="22" x="405" y="40" /><rect fill="black" height="1" stroke="none" width="42" x="468" y="40" /><rect fill="black" height="1" stroke="none" width="24" x="404" y="41" /><rect fill="black" height="1" stroke="none" width="42" x="468" y="41" /><rect fill="black" height="1" stroke="none" width="27" x="402" y="42" /><rect fill="black" height="1" stroke="none" width="43" x="467" y="42" /><rect fill="black" height="1" stroke="none" width="30" x="400" y="43" /><rect fill="black" height="1" stroke="none" width="43" x="467" y="43" /><rect fill="black" height="1" stroke="none" width="32" x="399" y="44" /><rect fill="black" height="1" stroke="none" width="44" x="466" y="44" /><rect fill="black" height="1" stroke="none" width="35" x="397" y="45" /><rect fill="black" height="1" stroke="none" width="44" x="466" y="45" /><rect fill="black" height="1" stroke="none" width="38" x="395" y="46" /><rect fill="black" height="1" stroke="none" width="45" x="465" y="46" /><rect fill="black" height="1" stroke="none" width="40" x="394" y="47" /><rect fill="black" height="1" stroke="none" width="46" x="464" y="47" /><rect fill="black" height="1" stroke="none" width="42" x="393" y="48" /><rect fill="black" height="1" stroke="none" width="47" x="463" y="48" /><rect fill="black" height="1" stroke="none" width="43" x="393" y="49" /><rect fill="black" height="1" stroke="none" width="57" x="453" y="49" /><rect fill="black" height="1" stroke="none" width="45" x="392" y="50" /><rect fill="black" height="1" stroke="none" width="63" x="447" y="50" /><rect fill="black" height="1" stroke="none" width="47" x="392" y="51" /><rect fill="black" height="1" stroke="none" width="67" x="443" y="51" /><rect fill="black" height="1" stroke="none" width="118" x="392" y="52" /><rect fill="black" height="1" stroke="none" width="118" x="392" y="53" /><rect fill="black" height="1" stroke="none" width="118" x="392" y="54" /><rect fill="black" height="1" stroke="none" width="117" x="393" y="55" /><rect fill="black" height="1" stroke="none" width="117" x="393" y="56" /><rect fill="black" height="1" stroke="none" width="117" x="393" y="57" /><rect fill="black" height="1" stroke="none" width="116" x="394" y="58" /><rect fill="black" height="1" stroke="none" width="117" x="394" y="59" /><rect fill="black" height="1" stroke="none" width="118" x="394" y="60" /><rect fill="black" height="1" stroke="none" width="119" x="394" y="61" /><rect fill="black" height="1" stroke="none" width="120" x="395" y="62" /><rect fill="black" height="1" stroke="none" width="121" x="395" y="63" /><rect fill="black" height="1" stroke="none" width="123" x="395" y="64" /><rect fill="black" height="1" stroke="none" width="123" x="396" y="65" /><rect fill="black" height="1" stroke="none" width="125" x="396" y="66" /><rect fill="black" height="1" stroke="none" width="126" x="396" y="67" /><rect fill="black" height="1" stroke="none" width="3" x="553" y="67" /><rect fill="black" height="1" stroke="none" width="126" x="397" y="68" /><rect fill="black" height="1" stroke="none" width="8" x="550" y="68" /><rect fill="black" height="1" stroke="none" width="128" x="397" y="69" /><rect fill="black" height="1" stroke="none" width="14" x="546" y="69" /><rect fill="black" height="1" stroke="none" width="129" x="397" y="70" /><rect fill="black" height="1" stroke="none" width="18" x="543" y="70" /><rect fill="black" height="1" stroke="none" width="130" x="397" y="71" /><rect fill="black" height="1" stroke="none" width="21" x="540" y="71" /><rect fill="black" height="1" stroke="none" width="130" x="398" y="72" /><rect fill="black" height="1" stroke="none" width="26" x="536" y="72" /><rect fill="black" height="1" stroke="none" width="132" x="398" y="73" /><rect fill="black" height="1" stroke="none" width="29" x="533" y="73" /><rect fill="black" height="1" stroke="none" width="165" x="398" y="74" /><rect fill="black" height="1" stroke="none" width="166" x="398" y="75" /><rect fill="black" height="1" stroke="none" width="166" x="398" y="76" /><rect fill="black" height="1" stroke="none" width="167" x="398" y="77" /><rect fill="black" height="1" stroke="none" width="168" x="397" y="78" /><rect fill="black" height="1" stroke="none" width="169" x="397" y="79" /><rect fill="black" height="1" stroke="none" width="171" x="396" y="80" /><rect fill="black" height="1" stroke="none" width="172" x="395" y="81" /><rect fill="black" height="1" stroke="none" width="174" x="394" y="82" /><rect fill="black" height="1" stroke="none" width="175" x="393" y="83" /><rect fill="black" height="1" stroke="none" width="177" x="392" y="84" /><rect fill="black" height="1" stroke="none" width="178" x="392" y="85" /><rect fill="black" height="1" stroke="none" width="68" x="391" y="86" /><rect fill="black" height="1" stroke="none" width="98" x="472" y="86" /><rect fill="black" height="1" stroke="none" width="64" x="390" y="87" /><rect fill="black" height="1" stroke="none" width="93" x="478" y="87" /><rect fill="black" height="1" stroke="none" width="61" x="389" y="88" /><rect fill="black" height="1" stroke="none" width="90" x="482" y="88" /><rect fill="black" height="1" stroke="none" width="58" x="389" y="89" /><rect fill="black" height="1" stroke="none" width="87" x="485" y="89" /><rect fill="black" height="1" stroke="none" width="57" x="388" y="90" /><rect fill="black" height="1" stroke="none" width="85" x="488" y="90" /><rect fill="black" height="1" stroke="none" width="55" x="387" y="91" /><rect fill="black" height="1" stroke="none" width="83" x="490" y="91" /><rect fill="black" height="1" stroke="none" width="53" x="387" y="92" /><rect fill="black" height="1" stroke="none" width="81" x="492" y="92" /><rect fill="black" height="1" stroke="none" width="53" x="386" y="93" /><rect fill="black" height="1" stroke="none" width="79" x="494" y="93" /><rect fill="black" height="1" stroke="none" width="51" x="386" y="94" /><rect fill="black" height="1" stroke="none" width="78" x="495" y="94" /><rect fill="black" height="1" stroke="none" width="50" x="385" y="95" /><rect fill="black" height="1" stroke="none" width="76" x="497" y="95" /><rect fill="black" height="1" stroke="none" width="50" x="384" y="96" /><rect fill="black" height="1" stroke="none" width="74" x="498" y="96" /><rect fill="black" height="1" stroke="none" width="56" x="376" y="97" /><rect fill="black" height="1" stroke="none" width="71" x="500" y="97" /><rect fill="black" height="1" stroke="none" width="73" x="358" y="98" /><rect fill="black" height="1" stroke="none" width="9" x="466" y="98" /><rect fill="black" height="1" stroke="none" width="69" x="501" y="98" /><rect fill="black" height="1" stroke="none" width="74" x="356" y="99" /><rect fill="black" height="1" stroke="none" width="16" x="463" y="99" /><rect fill="black" height="1" stroke="none" width="68" x="502" y="99" /><rect fill="black" height="1" stroke="none" width="74" x="355" y="100" /><rect fill="black" height="1" stroke="none" width="21" x="460" y="100" /><rect fill="black" height="1" stroke="none" width="65" x="503" y="100" /><rect fill="black" height="1" stroke="none" width="73" x="355" y="101" /><rect fill="black" height="1" stroke="none" width="23" x="458" y="101" /><rect fill="black" height="1" stroke="none" width="63" x="504" y="101" /><rect fill="black" height="1" stroke="none" width="73" x="354" y="102" /><rect fill="black" height="1" stroke="none" width="25" x="457" y="102" /><rect fill="black" height="1" stroke="none" width="62" x="505" y="102" /><rect fill="black" height="1" stroke="none" width="72" x="354" y="103" /><rect fill="black" height="1" stroke="none" width="25" x="456" y="103" /><rect fill="black" height="1" stroke="none" width="60" x="506" y="103" /><rect fill="black" height="1" stroke="none" width="72" x="353" y="104" /><rect fill="black" height="1" stroke="none" width="15" x="454" y="104" /><rect fill="black" height="1" stroke="none" width="8" x="473" y="104" /><rect fill="black" height="1" stroke="none" width="58" x="507" y="104" /><rect fill="black" height="1" stroke="none" width="71" x="353" y="105" /><rect fill="black" height="1" stroke="none" width="11" x="453" y="105" /><rect fill="black" height="1" stroke="none" width="3" x="477" y="105" /><rect fill="black" height="1" stroke="none" width="56" x="508" y="105" /><rect fill="black" height="1" stroke="none" width="70" x="353" y="106" /><rect fill="black" height="1" stroke="none" width="10" x="452" y="106" /><rect fill="black" height="1" stroke="none" width="54" x="509" y="106" /><rect fill="black" height="1" stroke="none" width="69" x="353" y="107" /><rect fill="black" height="1" stroke="none" width="9" x="452" y="107" /><rect fill="black" height="1" stroke="none" width="52" x="510" y="107" /><rect fill="black" height="1" stroke="none" width="69" x="353" y="108" /><rect fill="black" height="1" stroke="none" width="8" x="451" y="108" /><rect fill="black" height="1" stroke="none" width="51" x="510" y="108" /><rect fill="black" height="1" stroke="none" width="69" x="352" y="109" /><rect fill="black" height="1" stroke="none" width="8" x="450" y="109" /><rect fill="black" height="1" stroke="none" width="49" x="511" y="109" /><rect fill="black" height="1" stroke="none" width="68" x="352" y="110" /><rect fill="black" height="1" stroke="none" width="7" x="450" y="110" /><rect fill="black" height="1" stroke="none" width="47" x="512" y="110" /><rect fill="black" height="1" stroke="none" width="67" x="352" y="111" /><rect fill="black" height="1" stroke="none" width="8" x="449" y="111" /><rect fill="black" height="1" stroke="none" width="46" x="512" y="111" /><rect fill="black" height="1" stroke="none" width="67" x="352" y="112" /><rect fill="black" height="1" stroke="none" width="7" x="449" y="112" /><rect fill="black" height="1" stroke="none" width="44" x="513" y="112" /><rect fill="black" height="1" stroke="none" width="67" x="351" y="113" /><rect fill="black" height="1" stroke="none" width="7" x="448" y="113" /><rect fill="black" height="1" stroke="none" width="43" x="513" y="113" /><rect fill="black" height="1" stroke="none" width="67" x="351" y="114" /><rect fill="black" height="1" stroke="none" width="7" x="448" y="114" /><rect fill="black" height="1" stroke="none" width="42" x="514" y="114" /><rect fill="black" height="1" stroke="none" width="66" x="351" y="115" /><rect fill="black" height="1" stroke="none" width="35" x="441" y="115" /><rect fill="black" height="1" stroke="none" width="40" x="515" y="115" /><rect fill="black" height="1" stroke="none" width="66" x="351" y="116" /><rect fill="black" height="1" stroke="none" width="37" x="440" y="116" /><rect fill="black" height="1" stroke="none" width="40" x="515" y="116" /><rect fill="black" height="1" stroke="none" width="66" x="350" y="117" /><rect fill="black" height="1" stroke="none" width="37" x="440" y="117" /><rect fill="black" height="1" stroke="none" width="40" x="516" y="117" /><rect fill="black" height="1" stroke="none" width="66" x="350" y="118" /><rect fill="black" height="1" stroke="none" width="37" x="440" y="118" /><rect fill="black" height="1" stroke="none" width="40" x="516" y="118" /><rect fill="black" height="1" stroke="none" width="65" x="350" y="119" /><rect fill="black" height="1" stroke="none" width="36" x="441" y="119" /><rect fill="black" height="1" stroke="none" width="39" x="517" y="119" /><rect fill="black" height="1" stroke="none" width="65" x="350" y="120" /><rect fill="black" height="1" stroke="none" width="34" x="442" y="120" /><rect fill="black" height="1" stroke="none" width="39" x="517" y="120" /><rect fill="black" height="1" stroke="none" width="65" x="349" y="121" /><rect fill="black" height="1" stroke="none" width="6" x="447" y="121" /><rect fill="black" height="1" stroke="none" width="39" x="517" y="121" /><rect fill="black" height="1" stroke="none" width="65" x="349" y="122" /><rect fill="black" height="1" stroke="none" width="6" x="447" y="122" /><rect fill="black" height="1" stroke="none" width="39" x="518" y="122" /><rect fill="black" height="1" stroke="none" width="65" x="349" y="123" /><rect fill="black" height="1" stroke="none" width="6" x="447" y="123" /><rect fill="black" height="1" stroke="none" width="39" x="518" y="123" /><rect fill="black" height="1" stroke="none" width="64" x="349" y="124" /><rect fill="black" height="1" stroke="none" width="6" x="447" y="124" /><rect fill="black" height="1" stroke="none" width="39" x="518" y="124" /><rect fill="black" height="1" stroke="none" width="64" x="349" y="125" /><rect fill="black" height="1" stroke="none" width="7" x="447" y="125" /><rect fill="black" height="1" stroke="none" width="1" x="455" y="125" /><rect fill="black" height="1" stroke="none" width="38" x="519" y="125" /><rect fill="black" height="1" stroke="none" width="64" x="349" y="126" /><rect fill="black" height="1" stroke="none" width="33" x="441" y="126" /><rect fill="black" height="1" stroke="none" width="39" x="519" y="126" /><rect fill="black" height="1" stroke="none" width="64" x="349" y="127" /><rect fill="black" height="1" stroke="none" width="35" x="440" y="127" /><rect fill="black" height="1" stroke="none" width="39" x="519" y="127" /><rect fill="black" height="1" stroke="none" width="63" x="349" y="128" /><rect fill="black" height="1" stroke="none" width="35" x="440" y="128" /><rect fill="black" height="1" stroke="none" width="39" x="519" y="128" /><rect fill="black" height="1" stroke="none" width="62" x="350" y="129" /><rect fill="black" height="1" stroke="none" width="35" x="440" y="129" /><rect fill="black" height="1" stroke="none" width="38" x="520" y="129" /><rect fill="black" height="1" stroke="none" width="61" x="351" y="130" /><rect fill="black" height="1" stroke="none" width="34" x="441" y="130" /><rect fill="black" height="1" stroke="none" width="38" x="520" y="130" /><rect fill="black" height="1" stroke="none" width="60" x="352" y="131" /><rect fill="black" height="1" stroke="none" width="31" x="442" y="131" /><rect fill="black" height="1" stroke="none" width="38" x="520" y="131" /><rect fill="black" height="1" stroke="none" width="57" x="354" y="132" /><rect fill="black" height="1" stroke="none" width="7" x="449" y="132" /><rect fill="black" height="1" stroke="none" width="38" x="520" y="132" /><rect fill="black" height="1" stroke="none" width="55" x="356" y="133" /><rect fill="black" height="1" stroke="none" width="7" x="450" y="133" /><rect fill="black" height="1" stroke="none" width="38" x="521" y="133" /><rect fill="black" height="1" stroke="none" width="54" x="357" y="134" /><rect fill="black" height="1" stroke="none" width="8" x="450" y="134" /><rect fill="black" height="1" stroke="none" width="38" x="521" y="134" /><rect fill="black" height="1" stroke="none" width="52" x="359" y="135" /><rect fill="black" height="1" stroke="none" width="8" x="451" y="135" /><rect fill="black" height="1" stroke="none" width="38" x="521" y="135" /><rect fill="black" height="1" stroke="none" width="50" x="361" y="136" /><rect fill="black" height="1" stroke="none" width="9" x="451" y="136" /><rect fill="black" height="1" stroke="none" width="38" x="521" y="136" /><rect fill="black" height="1" stroke="none" width="48" x="363" y="137" /><rect fill="black" height="1" stroke="none" width="10" x="452" y="137" /><rect fill="black" height="1" stroke="none" width="38" x="521" y="137" /><rect fill="black" height="1" stroke="none" width="46" x="365" y="138" /><rect fill="black" height="1" stroke="none" width="11" x="453" y="138" /><rect fill="black" height="1" stroke="none" width="38" x="521" y="138" /><rect fill="black" height="1" stroke="none" width="44" x="367" y="139" /><rect fill="black" height="1" stroke="none" width="1" x="412" y="139" /><rect fill="black" height="1" stroke="none" width="12" x="454" y="139" /><rect fill="black" height="1" stroke="none" width="4" x="476" y="139" /><rect fill="black" height="1" stroke="none" width="39" x="521" y="139" /><rect fill="black" height="1" stroke="none" width="43" x="368" y="140" /><rect fill="black" height="1" stroke="none" width="1" x="412" y="140" /><rect fill="black" height="1" stroke="none" width="26" x="455" y="140" /><rect fill="black" height="1" stroke="none" width="40" x="521" y="140" /><rect fill="black" height="1" stroke="none" width="41" x="370" y="141" /><rect fill="black" height="1" stroke="none" width="1" x="412" y="141" /><rect fill="black" height="1" stroke="none" width="25" x="456" y="141" /><rect fill="black" height="1" stroke="none" width="41" x="521" y="141" /><rect fill="black" height="1" stroke="none" width="40" x="371" y="142" /><rect fill="black" height="1" stroke="none" width="1" x="412" y="142" /><rect fill="black" height="1" stroke="none" width="23" x="458" y="142" /><rect fill="black" height="1" stroke="none" width="43" x="521" y="142" /><rect fill="black" height="1" stroke="none" width="38" x="373" y="143" /><rect fill="black" height="1" stroke="none" width="1" x="412" y="143" /><rect fill="black" height="1" stroke="none" width="22" x="459" y="143" /><rect fill="black" height="1" stroke="none" width="45" x="521" y="143" /><rect fill="black" height="1" stroke="none" width="38" x="373" y="144" /><rect fill="black" height="1" stroke="none" width="18" x="462" y="144" /><rect fill="black" height="1" stroke="none" width="47" x="521" y="144" /><rect fill="black" height="1" stroke="none" width="38" x="373" y="145" /><rect fill="black" height="1" stroke="none" width="1" x="412" y="145" /><rect fill="black" height="1" stroke="none" width="13" x="464" y="145" /><rect fill="black" height="1" stroke="none" width="49" x="521" y="145" /><rect fill="black" height="1" stroke="none" width="38" x="373" y="146" /><rect fill="black" height="1" stroke="none" width="51" x="521" y="146" /><rect fill="black" height="1" stroke="none" width="38" x="373" y="147" /><rect fill="black" height="1" stroke="none" width="53" x="521" y="147" /><rect fill="black" height="1" stroke="none" width="38" x="373" y="148" /><rect fill="black" height="1" stroke="none" width="54" x="521" y="148" /><rect fill="black" height="1" stroke="none" width="38" x="373" y="149" /><rect fill="black" height="1" stroke="none" width="57" x="520" y="149" /><rect fill="black" height="1" stroke="none" width="39" x="373" y="150" /><rect fill="black" height="1" stroke="none" width="59" x="520" y="150" /><rect fill="black" height="1" stroke="none" width="38" x="374" y="151" /><rect fill="black" height="1" stroke="none" width="60" x="520" y="151" /><rect fill="black" height="1" stroke="none" width="38" x="374" y="152" /><rect fill="black" height="1" stroke="none" width="61" x="520" y="152" /><rect fill="black" height="1" stroke="none" width="38" x="374" y="153" /><rect fill="black" height="1" stroke="none" width="62" x="520" y="153" /><rect fill="black" height="1" stroke="none" width="38" x="374" y="154" /><rect fill="black" height="1" stroke="none" width="63" x="520" y="154" /><rect fill="black" height="1" stroke="none" width="39" x="374" y="155" /><rect fill="black" height="1" stroke="none" width="64" x="519" y="155" /><rect fill="black" height="1" stroke="none" width="39" x="374" y="156" /><rect fill="black" height="1" stroke="none" width="39" x="427" y="156" /><rect fill="black" height="1" stroke="none" width="64" x="519" y="156" /><rect fill="black" height="1" stroke="none" width="38" x="375" y="157" /><rect fill="black" height="1" stroke="none" width="41" x="426" y="157" /><rect fill="black" height="1" stroke="none" width="64" x="519" y="157" /><rect fill="black" height="1" stroke="none" width="39" x="375" y="158" /><rect fill="black" height="1" stroke="none" width="43" x="425" y="158" /><rect fill="black" height="1" stroke="none" width="65" x="518" y="158" /><rect fill="black" height="1" stroke="none" width="39" x="375" y="159" /><rect fill="black" height="1" stroke="none" width="43" x="425" y="159" /><rect fill="black" height="1" stroke="none" width="65" x="518" y="159" /><rect fill="black" height="1" stroke="none" width="39" x="375" y="160" /><rect fill="black" height="1" stroke="none" width="43" x="425" y="160" /><rect fill="black" height="1" stroke="none" width="65" x="518" y="160" /><rect fill="black" height="1" stroke="none" width="39" x="375" y="161" /><rect fill="black" height="1" stroke="none" width="41" x="426" y="161" /><rect fill="black" height="1" stroke="none" width="65" x="517" y="161" /><rect fill="black" height="1" stroke="none" width="39" x="376" y="162" /><rect fill="black" height="1" stroke="none" width="1" x="429" y="162" /><rect fill="black" height="1" stroke="none" width="65" x="517" y="162" /><rect fill="black" height="1" stroke="none" width="39" x="376" y="163" /><rect fill="black" height="1" stroke="none" width="66" x="516" y="163" /><rect fill="black" height="1" stroke="none" width="40" x="376" y="164" /><rect fill="black" height="1" stroke="none" width="66" x="516" y="164" /><rect fill="black" height="1" stroke="none" width="40" x="376" y="165" /><rect fill="black" height="1" stroke="none" width="66" x="515" y="165" /><rect fill="black" height="1" stroke="none" width="41" x="376" y="166" /><rect fill="black" height="1" stroke="none" width="66" x="515" y="166" /><rect fill="black" height="1" stroke="none" width="42" x="376" y="167" /><rect fill="black" height="1" stroke="none" width="67" x="514" y="167" /><rect fill="black" height="1" stroke="none" width="42" x="376" y="168" /><rect fill="black" height="1" stroke="none" width="67" x="514" y="168" /><rect fill="black" height="1" stroke="none" width="44" x="375" y="169" /><rect fill="black" height="1" stroke="none" width="67" x="513" y="169" /><rect fill="black" height="1" stroke="none" width="45" x="374" y="170" /><rect fill="black" height="1" stroke="none" width="78" x="426" y="170" /><rect fill="black" height="1" stroke="none" width="67" x="513" y="170" /><rect fill="black" height="1" stroke="none" width="47" x="373" y="171" /><rect fill="black" height="1" stroke="none" width="79" x="426" y="171" /><rect fill="black" height="1" stroke="none" width="1" x="509" y="171" /><rect fill="black" height="1" stroke="none" width="68" x="512" y="171" /><rect fill="black" height="1" stroke="none" width="49" x="372" y="172" /><rect fill="black" height="1" stroke="none" width="80" x="425" y="172" /><rect fill="black" height="1" stroke="none" width="69" x="511" y="172" /><rect fill="black" height="1" stroke="none" width="50" x="371" y="173" /><rect fill="black" height="1" stroke="none" width="80" x="425" y="173" /><rect fill="black" height="1" stroke="none" width="1" x="507" y="173" /><rect fill="black" height="1" stroke="none" width="68" x="511" y="173" /><rect fill="black" height="1" stroke="none" width="52" x="370" y="174" /><rect fill="black" height="1" stroke="none" width="79" x="426" y="174" /><rect fill="black" height="1" stroke="none" width="69" x="510" y="174" /><rect fill="black" height="1" stroke="none" width="54" x="369" y="175" /><rect fill="black" height="1" stroke="none" width="76" x="427" y="175" /><rect fill="black" height="1" stroke="none" width="70" x="509" y="175" /><rect fill="black" height="1" stroke="none" width="55" x="368" y="176" /><rect fill="black" height="1" stroke="none" width="71" x="508" y="176" /><rect fill="black" height="1" stroke="none" width="57" x="367" y="177" /><rect fill="black" height="1" stroke="none" width="71" x="508" y="177" /><rect fill="black" height="1" stroke="none" width="58" x="367" y="178" /><rect fill="black" height="1" stroke="none" width="71" x="507" y="178" /><rect fill="black" height="1" stroke="none" width="60" x="366" y="179" /><rect fill="black" height="1" stroke="none" width="72" x="506" y="179" /><rect fill="black" height="1" stroke="none" width="62" x="365" y="180" /><rect fill="black" height="1" stroke="none" width="73" x="505" y="180" /><rect fill="black" height="1" stroke="none" width="64" x="364" y="181" /><rect fill="black" height="1" stroke="none" width="1" x="500" y="181" /><rect fill="black" height="1" stroke="none" width="74" x="503" y="181" /><rect fill="black" height="1" stroke="none" width="66" x="363" y="182" /><rect fill="black" height="1" stroke="none" width="74" x="502" y="182" /><rect fill="black" height="1" stroke="none" width="69" x="362" y="183" /><rect fill="black" height="1" stroke="none" width="65" x="433" y="183" /><rect fill="black" height="1" stroke="none" width="74" x="501" y="183" /><rect fill="black" height="1" stroke="none" width="71" x="361" y="184" /><rect fill="black" height="1" stroke="none" width="64" x="434" y="184" /><rect fill="black" height="1" stroke="none" width="73" x="500" y="184" /><rect fill="black" height="1" stroke="none" width="73" x="360" y="185" /><rect fill="black" height="1" stroke="none" width="61" x="435" y="185" /><rect fill="black" height="1" stroke="none" width="61" x="499" y="185" /><rect fill="black" height="1" stroke="none" width="75" x="359" y="186" /><rect fill="black" height="1" stroke="none" width="58" x="437" y="186" /><rect fill="black" height="1" stroke="none" width="50" x="497" y="186" /><rect fill="black" height="1" stroke="none" width="77" x="359" y="187" /><rect fill="black" height="1" stroke="none" width="55" x="438" y="187" /><rect fill="black" height="1" stroke="none" width="51" x="496" y="187" /><rect fill="black" height="1" stroke="none" width="78" x="359" y="188" /><rect fill="black" height="1" stroke="none" width="51" x="440" y="188" /><rect fill="black" height="1" stroke="none" width="52" x="494" y="188" /><rect fill="black" height="1" stroke="none" width="81" x="358" y="189" /><rect fill="black" height="1" stroke="none" width="38" x="443" y="189" /><rect fill="black" height="1" stroke="none" width="7" x="482" y="189" /><rect fill="black" height="1" stroke="none" width="53" x="492" y="189" /><rect fill="black" height="1" stroke="none" width="83" x="358" y="190" /><rect fill="black" height="1" stroke="none" width="55" x="490" y="190" /><rect fill="black" height="1" stroke="none" width="84" x="359" y="191" /><rect fill="black" height="1" stroke="none" width="56" x="488" y="191" /><rect fill="black" height="1" stroke="none" width="87" x="359" y="192" /><rect fill="black" height="1" stroke="none" width="1" x="480" y="192" /><rect fill="black" height="1" stroke="none" width="57" x="486" y="192" /><rect fill="black" height="1" stroke="none" width="88" x="360" y="193" /><rect fill="black" height="1" stroke="none" width="60" x="483" y="193" /><rect fill="black" height="1" stroke="none" width="91" x="361" y="194" /><rect fill="black" height="1" stroke="none" width="62" x="480" y="194" /><rect fill="black" height="1" stroke="none" width="95" x="361" y="195" /><rect fill="black" height="1" stroke="none" width="65" x="476" y="195" /><rect fill="black" height="1" stroke="none" width="179" x="362" y="196" /><rect fill="black" height="1" stroke="none" width="178" x="362" y="197" /><rect fill="black" height="1" stroke="none" width="176" x="363" y="198" /><rect fill="black" height="1" stroke="none" width="174" x="364" y="199" /><rect fill="black" height="1" stroke="none" width="173" x="364" y="200" /><rect fill="black" height="1" stroke="none" width="172" x="365" y="201" /><rect fill="black" height="1" stroke="none" width="171" x="365" y="202" /><rect fill="black" height="1" stroke="none" width="169" x="366" y="203" /><rect fill="black" height="1" stroke="none" width="167" x="367" y="204" /><rect fill="black" height="1" stroke="none" width="167" x="367" y="205" /><rect fill="black" height="1" stroke="none" width="166" x="368" y="206" /><rect fill="black" height="1" stroke="none" width="166" x="368" y="207" /><rect fill="black" height="1" stroke="none" width="165" x="369" y="208" /><rect fill="black" height="1" stroke="none" width="27" x="370" y="209" /><rect fill="black" height="1" stroke="none" width="131" x="403" y="209" /><rect fill="black" height="1" stroke="none" width="24" x="370" y="210" /><rect fill="black" height="1" stroke="none" width="130" x="404" y="210" /><rect fill="black" height="1" stroke="none" width="20" x="371" y="211" /><rect fill="black" height="1" stroke="none" width="130" x="405" y="211" /><rect fill="black" height="1" stroke="none" width="15" x="372" y="212" /><rect fill="black" height="1" stroke="none" width="128" x="407" y="212" /><rect fill="black" height="1" stroke="none" width="12" x="372" y="213" /><rect fill="black" height="1" stroke="none" width="127" x="408" y="213" /><rect fill="black" height="1" stroke="none" width="7" x="374" y="214" /><rect fill="black" height="1" stroke="none" width="127" x="409" y="214" /><rect fill="black" height="1" stroke="none" width="126" x="410" y="215" /><rect fill="black" height="1" stroke="none" width="124" x="412" y="216" /><rect fill="black" height="1" stroke="none" width="123" x="413" y="217" /><rect fill="black" height="1" stroke="none" width="123" x="414" y="218" /><rect fill="black" height="1" stroke="none" width="121" x="416" y="219" /><rect fill="black" height="1" stroke="none" width="119" x="418" y="220" /><rect fill="black" height="1" stroke="none" width="119" x="419" y="221" /><rect fill="black" height="1" stroke="none" width="118" x="420" y="222" /><rect fill="black" height="1" stroke="none" width="117" x="421" y="223" /><rect fill="black" height="1" stroke="none" width="118" x="421" y="224" /><rect fill="black" height="1" stroke="none" width="118" x="421" y="225" /><rect fill="black" height="1" stroke="none" width="118" x="421" y="226" /><rect fill="black" height="1" stroke="none" width="118" x="421" y="227" /><rect fill="black" height="1" stroke="none" width="119" x="421" y="228" /><rect fill="black" height="1" stroke="none" width="118" x="422" y="229" /><rect fill="black" height="1" stroke="none" width="118" x="422" y="230" /><rect fill="black" height="1" stroke="none" width="66" x="422" y="231" /><rect fill="black" height="1" stroke="none" width="46" x="493" y="231" /><rect fill="black" height="1" stroke="none" width="61" x="422" y="232" /><rect fill="black" height="1" stroke="none" width="44" x="495" y="232" /><rect fill="black" height="1" stroke="none" width="55" x="422" y="233" /><rect fill="black" height="1" stroke="none" width="42" x="496" y="233" /><rect fill="black" height="1" stroke="none" width="46" x="422" y="234" /><rect fill="black" height="1" stroke="none" width="40" x="497" y="234" /><rect fill="black" height="1" stroke="none" width="45" x="422" y="235" /><rect fill="black" height="1" stroke="none" width="38" x="498" y="235" /><rect fill="black" height="1" stroke="none" width="45" x="422" y="236" /><rect fill="black" height="1" stroke="none" width="35" x="499" y="236" /><rect fill="black" height="1" stroke="none" width="44" x="422" y="237" /><rect fill="black" height="1" stroke="none" width="33" x="500" y="237" /><rect fill="black" height="1" stroke="none" width="44" x="422" y="238" /><rect fill="black" height="1" stroke="none" width="30" x="501" y="238" /><rect fill="black" height="1" stroke="none" width="43" x="422" y="239" /><rect fill="black" height="1" stroke="none" width="27" x="502" y="239" /><rect fill="black" height="1" stroke="none" width="42" x="422" y="240" /><rect fill="black" height="1" stroke="none" width="24" x="503" y="240" /><rect fill="black" height="1" stroke="none" width="42" x="422" y="241" /><rect fill="black" height="1" stroke="none" width="21" x="504" y="241" /><rect fill="black" height="1" stroke="none" width="41" x="422" y="242" /><rect fill="black" height="1" stroke="none" width="18" x="505" y="242" /><rect fill="black" height="1" stroke="none" width="41" x="422" y="243" /><rect fill="black" height="1" stroke="none" width="16" x="506" y="243" /><rect fill="black" height="1" stroke="none" width="40" x="422" y="244" /><rect fill="black" height="1" stroke="none" width="14" x="507" y="244" /><rect fill="black" height="1" stroke="none" width="40" x="422" y="245" /><rect fill="black" height="1" stroke="none" width="11" x="508" y="245" /><rect fill="black" height="1" stroke="none" width="39" x="422" y="246" /><rect fill="black" height="1" stroke="none" width="8" x="510" y="246" /><rect fill="black" height="1" stroke="none" width="39" x="422" y="247" /><rect fill="black" height="1" stroke="none" width="5" x="511" y="247" /><rect fill="black" height="1" stroke="none" width="37" x="423" y="248" /><rect fill="black" height="1" stroke="none" width="37" x="423" y="249" /><rect fill="black" height="1" stroke="none" width="35" x="424" y="250" /><rect fill="black" height="1" stroke="none" width="33" x="425" y="251" /><rect fill="black" height="1" stroke="none" width="32" x="426" y="252" /><rect fill="black" height="1" stroke="none" width="29" x="428" y="253" /><rect fill="black" height="1" stroke="none" width="25" x="432" y="254" /><rect fill="black" height="1" stroke="none" width="20" x="436" y="255" /><rect fill="black" height="1" stroke="none" width="15" x="440" y="256" /><rect fill="black" height="1" stroke="none" width="10" x="444" y="257" /></g></svg>