<?xml version="1.0" encoding="utf-8" ?>
<svg baseProfile="full" height="64px" version="1.1" width="64px" xmlns="http://www.w3.org/2000/svg" xmlns:ev="http://www.w3.org/2001/xml-events" xmlns:xlink="http://www.w3.org/1999/xlink"><defs /><rect fill="white" height="64px" width="64px" x="0" y="0" /><g id="icon"><rect fill="black" height="1" stroke="none" width="4" x="37" y="6" /><rect fill="black" height="1" stroke="none" width="8" x="36" y="7" /><rect fill="black" height="1" stroke="none" width="2" x="22" y="8" /><rect fill="black" height="1" stroke="none" width="9" x="36" y="8" /><rect fill="black" height="1" stroke="none" width="5" x="20" y="9" /><rect fill="black" height="1" stroke="none" width="10" x="35" y="9" /><rect fill="black" height="1" stroke="none" width="7" x="19" y="10" /><rect fill="black" height="1" stroke="none" width="11" x="34" y="10" /><rect fill="black" height="1" stroke="none" width="10" x="17" y="11" /><rect fill="black" height="1" stroke="none" width="13" x="32" y="11" /><rect fill="black" height="1" stroke="none" width="28" x="17" y="12" /><rect fill="black" height="1" stroke="none" width="28" x="17" y="13" /><rect fill="black" height="1" stroke="none" width="28" x="18" y="14" /><rect fill="black" height="1" stroke="none" width="29" x="18" y="15" /><rect fill="black" height="1" stroke="none" width="30" x="18" y="16" /><rect fill="black" height="1" stroke="none" width="4" x="53" y="16" /><rect fill="black" height="1" stroke="none" width="38" x="19" y="17" /><rect fill="black" height="1" stroke="none" width="40" x="18" y="18" /><rect fill="black" height="1" stroke="none" width="41" x="17" y="19" /><rect fill="black" height="1" stroke="none" width="15" x="17" y="20" /><rect fill="black" height="1" stroke="none" width="22" x="37" y="20" /><rect fill="black" height="1" stroke="none" width="13" x="16" y="21" /><rect fill="black" height="1" stroke="none" width="20" x="40" y="21" /><rect fill="black" height="1" stroke="none" width="12" x="15" y="22" /><rect fill="black" height="1" stroke="none" width="17" x="42" y="22" /><rect fill="black" height="1" stroke="none" width="17" x="9" y="23" /><rect fill="black" height="1" stroke="none" width="5" x="33" y="23" /><rect fill="black" height="1" stroke="none" width="16" x="43" y="23" /><rect fill="black" height="1" stroke="none" width="17" x="8" y="24" /><rect fill="black" height="1" stroke="none" width="3" x="32" y="24" /><rect fill="black" height="1" stroke="none" width="2" x="36" y="24" /><rect fill="black" height="1" stroke="none" width="14" x="44" y="24" /><rect fill="black" height="1" stroke="none" width="16" x="8" y="25" /><rect fill="black" height="1" stroke="none" width="2" x="31" y="25" /><rect fill="black" height="1" stroke="none" width="12" x="45" y="25" /><rect fill="black" height="1" stroke="none" width="15" x="8" y="26" /><rect fill="black" height="1" stroke="none" width="2" x="30" y="26" /><rect fill="black" height="1" stroke="none" width="10" x="46" y="26" /><rect fill="black" height="1" stroke="none" width="16" x="7" y="27" /><rect fill="black" height="1" stroke="none" width="9" x="28" y="27" /><rect fill="black" height="1" stroke="none" width="9" x="46" y="27" /><rect fill="black" height="1" stroke="none" width="15" x="7" y="28" /><rect fill="black" height="1" stroke="none" width="2" x="30" y="28" /><rect fill="black" height="1" stroke="none" width="9" x="47" y="28" /><rect fill="black" height="1" stroke="none" width="15" x="7" y="29" /><rect fill="black" height="1" stroke="none" width="2" x="30" y="29" /><rect fill="black" height="1" stroke="none" width="9" x="47" y="29" /><rect fill="black" height="1" stroke="none" width="15" x="7" y="30" /><rect fill="black" height="1" stroke="none" width="7" x="29" y="30" /><rect fill="black" height="1" stroke="none" width="9" x="47" y="30" /><rect fill="black" height="1" stroke="none" width="13" x="9" y="31" /><rect fill="black" height="1" stroke="none" width="2" x="31" y="31" /><rect fill="black" height="1" stroke="none" width="9" x="47" y="31" /><rect fill="black" height="1" stroke="none" width="11" x="11" y="32" /><rect fill="black" height="1" stroke="none" width="3" x="31" y="32" /><rect fill="black" height="1" stroke="none" width="9" x="47" y="32" /><rect fill="black" height="1" stroke="none" width="10" x="12" y="33" /><rect fill="black" height="1" stroke="none" width="5" x="33" y="33" /><rect fill="black" height="1" stroke="none" width="11" x="47" y="33" /><rect fill="black" height="1" stroke="none" width="9" x="13" y="34" /><rect fill="black" height="1" stroke="none" width="13" x="47" y="34" /><rect fill="black" height="1" stroke="none" width="9" x="13" y="35" /><rect fill="black" height="1" stroke="none" width="14" x="47" y="35" /><rect fill="black" height="1" stroke="none" width="9" x="13" y="36" /><rect fill="black" height="1" stroke="none" width="15" x="47" y="36" /><rect fill="black" height="1" stroke="none" width="9" x="13" y="37" /><rect fill="black" height="1" stroke="none" width="10" x="25" y="37" /><rect fill="black" height="1" stroke="none" width="15" x="47" y="37" /><rect fill="black" height="1" stroke="none" width="10" x="13" y="38" /><rect fill="black" height="1" stroke="none" width="16" x="46" y="38" /><rect fill="black" height="1" stroke="none" width="10" x="13" y="39" /><rect fill="black" height="1" stroke="none" width="15" x="46" y="39" /><rect fill="black" height="1" stroke="none" width="12" x="12" y="40" /><rect fill="black" height="1" stroke="none" width="19" x="25" y="40" /><rect fill="black" height="1" stroke="none" width="16" x="45" y="40" /><rect fill="black" height="1" stroke="none" width="14" x="11" y="41" /><rect fill="black" height="1" stroke="none" width="17" x="44" y="41" /><rect fill="black" height="1" stroke="none" width="14" x="11" y="42" /><rect fill="black" height="1" stroke="none" width="17" x="43" y="42" /><rect fill="black" height="1" stroke="none" width="46" x="10" y="43" /><rect fill="black" height="1" stroke="none" width="21" x="9" y="44" /><rect fill="black" height="1" stroke="none" width="5" x="32" y="44" /><rect fill="black" height="1" stroke="none" width="14" x="39" y="44" /><rect fill="black" height="1" stroke="none" width="21" x="10" y="45" /><rect fill="black" height="1" stroke="none" width="14" x="38" y="45" /><rect fill="black" height="1" stroke="none" width="42" x="10" y="46" /><rect fill="black" height="1" stroke="none" width="40" x="11" y="47" /><rect fill="black" height="1" stroke="none" width="39" x="11" y="48" /><rect fill="black" height="1" stroke="none" width="5" x="12" y="49" /><rect fill="black" height="1" stroke="none" width="31" x="20" y="49" /><rect fill="black" height="1" stroke="none" width="30" x="21" y="50" /><rect fill="black" height="1" stroke="none" width="28" x="23" y="51" /><rect fill="black" height="1" stroke="none" width="27" x="24" y="52" /><rect fill="black" height="1" stroke="none" width="28" x="24" y="53" /><rect fill="black" height="1" stroke="none" width="14" x="24" y="54" /><rect fill="black" height="1" stroke="none" width="11" x="41" y="54" /><rect fill="black" height="1" stroke="none" width="11" x="24" y="55" /><rect fill="black" height="1" stroke="none" width="8" x="42" y="55" /><rect fill="black" height="1" stroke="none" width="10" x="24" y="56" /><rect fill="black" height="1" stroke="none" width="6" x="43" y="56" /><rect fill="black" height="1" stroke="none" width="9" x="24" y="57" /><rect fill="black" height="1" stroke="none" width="3" x="44" y="57" /><rect fill="black" height="1" stroke="none" width="9" x="24" y="58" /><rect fill="black" height="1" stroke="none" width="6" x="26" y="59" /></g></svg>