<?xml version="1.0" encoding="utf-8" ?>
<svg baseProfile="full" height="256px" version="1.1" width="256px" xmlns="http://www.w3.org/2000/svg" xmlns:ev="http://www.w3.org/2001/xml-events" xmlns:xlink="http://www.w3.org/1999/xlink"><defs /><rect fill="white" height="256px" width="256px" x="0" y="0" /><g id="icon"><rect fill="black" height="1" stroke="none" width="8" x="149" y="23" /><rect fill="black" height="1" stroke="none" width="14" x="148" y="24" /><rect fill="black" height="1" stroke="none" width="19" x="146" y="25" /><rect fill="black" height="1" stroke="none" width="24" x="146" y="26" /><rect fill="black" height="1" stroke="none" width="28" x="145" y="27" /><rect fill="black" height="1" stroke="none" width="30" x="145" y="28" /><rect fill="black" height="1" stroke="none" width="32" x="144" y="29" /><rect fill="black" height="1" stroke="none" width="33" x="144" y="30" /><rect fill="black" height="1" stroke="none" width="35" x="143" y="31" /><rect fill="black" height="1" stroke="none" width="4" x="90" y="32" /><rect fill="black" height="1" stroke="none" width="35" x="143" y="32" /><rect fill="black" height="1" stroke="none" width="8" x="88" y="33" /><rect fill="black" height="1" stroke="none" width="36" x="142" y="33" /><rect fill="black" height="1" stroke="none" width="10" x="87" y="34" /><rect fill="black" height="1" stroke="none" width="37" x="142" y="34" /><rect fill="black" height="1" stroke="none" width="14" x="85" y="35" /><rect fill="black" height="1" stroke="none" width="38" x="141" y="35" /><rect fill="black" height="1" stroke="none" width="17" x="83" y="36" /><rect fill="black" height="1" stroke="none" width="38" x="141" y="36" /><rect fill="black" height="1" stroke="none" width="19" x="82" y="37" /><rect fill="black" height="1" stroke="none" width="39" x="140" y="37" /><rect fill="black" height="1" stroke="none" width="22" x="80" y="38" /><rect fill="black" height="1" stroke="none" width="39" x="140" y="38" /><rect fill="black" height="1" stroke="none" width="25" x="78" y="39" /><rect fill="black" height="1" stroke="none" width="40" x="139" y="39" /><rect fill="black" height="1" stroke="none" width="28" x="76" y="40" /><rect fill="black" height="1" stroke="none" width="40" x="139" y="40" /><rect fill="black" height="1" stroke="none" width="30" x="75" y="41" /><rect fill="black" height="1" stroke="none" width="41" x="138" y="41" /><rect fill="black" height="1" stroke="none" width="33" x="73" y="42" /><rect fill="black" height="1" stroke="none" width="41" x="138" y="42" /><rect fill="black" height="1" stroke="none" width="36" x="71" y="43" /><rect fill="black" height="1" stroke="none" width="42" x="137" y="43" /><rect fill="black" height="1" stroke="none" width="38" x="70" y="44" /><rect fill="black" height="1" stroke="none" width="43" x="136" y="44" /><rect fill="black" height="1" stroke="none" width="40" x="69" y="45" /><rect fill="black" height="1" stroke="none" width="44" x="135" y="45" /><rect fill="black" height="1" stroke="none" width="41" x="69" y="46" /><rect fill="black" height="1" stroke="none" width="53" x="126" y="46" /><rect fill="black" height="1" stroke="none" width="43" x="68" y="47" /><rect fill="black" height="1" stroke="none" width="59" x="120" y="47" /><rect fill="black" height="1" stroke="none" width="45" x="68" y="48" /><rect fill="black" height="1" stroke="none" width="63" x="116" y="48" /><rect fill="black" height="1" stroke="none" width="111" x="68" y="49" /><rect fill="black" height="1" stroke="none" width="111" x="68" y="50" /><rect fill="black" height="1" stroke="none" width="110" x="69" y="51" /><rect fill="black" height="1" stroke="none" width="110" x="69" y="52" /><rect fill="black" height="1" stroke="none" width="110" x="69" y="53" /><rect fill="black" height="1" stroke="none" width="109" x="70" y="54" /><rect fill="black" height="1" stroke="none" width="110" x="70" y="55" /><rect fill="black" height="1" stroke="none" width="111" x="70" y="56" /><rect fill="black" height="1" stroke="none" width="112" x="70" y="57" /><rect fill="black" height="1" stroke="none" width="113" x="71" y="58" /><rect fill="black" height="1" stroke="none" width="114" x="71" y="59" /><rect fill="black" height="1" stroke="none" width="116" x="71" y="60" /><rect fill="black" height="1" stroke="none" width="116" x="72" y="61" /><rect fill="black" height="1" stroke="none" width="118" x="72" y="62" /><rect fill="black" height="1" stroke="none" width="118" x="72" y="63" /><rect fill="black" height="1" stroke="none" width="3" x="219" y="63" /><rect fill="black" height="1" stroke="none" width="118" x="73" y="64" /><rect fill="black" height="1" stroke="none" width="8" x="216" y="64" /><rect fill="black" height="1" stroke="none" width="120" x="73" y="65" /><rect fill="black" height="1" stroke="none" width="13" x="213" y="65" /><rect fill="black" height="1" stroke="none" width="121" x="73" y="66" /><rect fill="black" height="1" stroke="none" width="17" x="210" y="66" /><rect fill="black" height="1" stroke="none" width="121" x="74" y="67" /><rect fill="black" height="1" stroke="none" width="20" x="207" y="67" /><rect fill="black" height="1" stroke="none" width="123" x="74" y="68" /><rect fill="black" height="1" stroke="none" width="27" x="201" y="68" /><rect fill="black" height="1" stroke="none" width="155" x="74" y="69" /><rect fill="black" height="1" stroke="none" width="156" x="74" y="70" /><rect fill="black" height="1" stroke="none" width="156" x="74" y="71" /><rect fill="black" height="1" stroke="none" width="157" x="74" y="72" /><rect fill="black" height="1" stroke="none" width="158" x="73" y="73" /><rect fill="black" height="1" stroke="none" width="159" x="73" y="74" /><rect fill="black" height="1" stroke="none" width="161" x="72" y="75" /><rect fill="black" height="1" stroke="none" width="162" x="71" y="76" /><rect fill="black" height="1" stroke="none" width="163" x="70" y="77" /><rect fill="black" height="1" stroke="none" width="165" x="69" y="78" /><rect fill="black" height="1" stroke="none" width="167" x="68" y="79" /><rect fill="black" height="1" stroke="none" width="167" x="68" y="80" /><rect fill="black" height="1" stroke="none" width="64" x="67" y="81" /><rect fill="black" height="1" stroke="none" width="92" x="144" y="81" /><rect fill="black" height="1" stroke="none" width="60" x="66" y="82" /><rect fill="black" height="1" stroke="none" width="87" x="150" y="82" /><rect fill="black" height="1" stroke="none" width="54" x="66" y="83" /><rect fill="black" height="1" stroke="none" width="82" x="155" y="83" /><rect fill="black" height="1" stroke="none" width="53" x="65" y="84" /><rect fill="black" height="1" stroke="none" width="80" x="158" y="84" /><rect fill="black" height="1" stroke="none" width="52" x="64" y="85" /><rect fill="black" height="1" stroke="none" width="78" x="160" y="85" /><rect fill="black" height="1" stroke="none" width="50" x="64" y="86" /><rect fill="black" height="1" stroke="none" width="76" x="162" y="86" /><rect fill="black" height="1" stroke="none" width="50" x="63" y="87" /><rect fill="black" height="1" stroke="none" width="74" x="164" y="87" /><rect fill="black" height="1" stroke="none" width="48" x="63" y="88" /><rect fill="black" height="1" stroke="none" width="73" x="165" y="88" /><rect fill="black" height="1" stroke="none" width="47" x="62" y="89" /><rect fill="black" height="1" stroke="none" width="71" x="167" y="89" /><rect fill="black" height="1" stroke="none" width="47" x="61" y="90" /><rect fill="black" height="1" stroke="none" width="69" x="168" y="90" /><rect fill="black" height="1" stroke="none" width="53" x="53" y="91" /><rect fill="black" height="1" stroke="none" width="66" x="170" y="91" /><rect fill="black" height="1" stroke="none" width="69" x="36" y="92" /><rect fill="black" height="1" stroke="none" width="8" x="138" y="92" /><rect fill="black" height="1" stroke="none" width="64" x="171" y="92" /><rect fill="black" height="1" stroke="none" width="69" x="35" y="93" /><rect fill="black" height="1" stroke="none" width="15" x="135" y="93" /><rect fill="black" height="1" stroke="none" width="63" x="172" y="93" /><rect fill="black" height="1" stroke="none" width="69" x="34" y="94" /><rect fill="black" height="1" stroke="none" width="20" x="132" y="94" /><rect fill="black" height="1" stroke="none" width="60" x="173" y="94" /><rect fill="black" height="1" stroke="none" width="68" x="34" y="95" /><rect fill="black" height="1" stroke="none" width="22" x="130" y="95" /><rect fill="black" height="1" stroke="none" width="59" x="174" y="95" /><rect fill="black" height="1" stroke="none" width="68" x="33" y="96" /><rect fill="black" height="1" stroke="none" width="24" x="129" y="96" /><rect fill="black" height="1" stroke="none" width="57" x="175" y="96" /><rect fill="black" height="1" stroke="none" width="68" x="32" y="97" /><rect fill="black" height="1" stroke="none" width="24" x="128" y="97" /><rect fill="black" height="1" stroke="none" width="55" x="176" y="97" /><rect fill="black" height="1" stroke="none" width="67" x="32" y="98" /><rect fill="black" height="1" stroke="none" width="10" x="126" y="98" /><rect fill="black" height="1" stroke="none" width="3" x="148" y="98" /><rect fill="black" height="1" stroke="none" width="53" x="177" y="98" /><rect fill="black" height="1" stroke="none" width="66" x="32" y="99" /><rect fill="black" height="1" stroke="none" width="9" x="125" y="99" /><rect fill="black" height="1" stroke="none" width="51" x="178" y="99" /><rect fill="black" height="1" stroke="none" width="65" x="32" y="100" /><rect fill="black" height="1" stroke="none" width="8" x="125" y="100" /><rect fill="black" height="1" stroke="none" width="49" x="179" y="100" /><rect fill="black" height="1" stroke="none" width="65" x="32" y="101" /><rect fill="black" height="1" stroke="none" width="7" x="124" y="101" /><rect fill="black" height="1" stroke="none" width="48" x="179" y="101" /><rect fill="black" height="1" stroke="none" width="65" x="31" y="102" /><rect fill="black" height="1" stroke="none" width="7" x="123" y="102" /><rect fill="black" height="1" stroke="none" width="46" x="180" y="102" /><rect fill="black" height="1" stroke="none" width="64" x="31" y="103" /><rect fill="black" height="1" stroke="none" width="6" x="123" y="103" /><rect fill="black" height="1" stroke="none" width="44" x="181" y="103" /><rect fill="black" height="1" stroke="none" width="63" x="31" y="104" /><rect fill="black" height="1" stroke="none" width="7" x="122" y="104" /><rect fill="black" height="1" stroke="none" width="43" x="181" y="104" /><rect fill="black" height="1" stroke="none" width="63" x="31" y="105" /><rect fill="black" height="1" stroke="none" width="6" x="122" y="105" /><rect fill="black" height="1" stroke="none" width="41" x="182" y="105" /><rect fill="black" height="1" stroke="none" width="63" x="30" y="106" /><rect fill="black" height="1" stroke="none" width="7" x="121" y="106" /><rect fill="black" height="1" stroke="none" width="40" x="182" y="106" /><rect fill="black" height="1" stroke="none" width="63" x="30" y="107" /><rect fill="black" height="1" stroke="none" width="7" x="121" y="107" /><rect fill="black" height="1" stroke="none" width="39" x="183" y="107" /><rect fill="black" height="1" stroke="none" width="62" x="30" y="108" /><rect fill="black" height="1" stroke="none" width="33" x="114" y="108" /><rect fill="black" height="1" stroke="none" width="37" x="184" y="108" /><rect fill="black" height="1" stroke="none" width="62" x="30" y="109" /><rect fill="black" height="1" stroke="none" width="35" x="113" y="109" /><rect fill="black" height="1" stroke="none" width="37" x="184" y="109" /><rect fill="black" height="1" stroke="none" width="62" x="29" y="110" /><rect fill="black" height="1" stroke="none" width="35" x="113" y="110" /><rect fill="black" height="1" stroke="none" width="37" x="185" y="110" /><rect fill="black" height="1" stroke="none" width="62" x="29" y="111" /><rect fill="black" height="1" stroke="none" width="34" x="114" y="111" /><rect fill="black" height="1" stroke="none" width="37" x="185" y="111" /><rect fill="black" height="1" stroke="none" width="61" x="29" y="112" /><rect fill="black" height="1" stroke="none" width="33" x="115" y="112" /><rect fill="black" height="1" stroke="none" width="36" x="186" y="112" /><rect fill="black" height="1" stroke="none" width="60" x="29" y="113" /><rect fill="black" height="1" stroke="none" width="6" x="120" y="113" /><rect fill="black" height="1" stroke="none" width="36" x="186" y="113" /><rect fill="black" height="1" stroke="none" width="61" x="28" y="114" /><rect fill="black" height="1" stroke="none" width="6" x="120" y="114" /><rect fill="black" height="1" stroke="none" width="37" x="186" y="114" /><rect fill="black" height="1" stroke="none" width="61" x="28" y="115" /><rect fill="black" height="1" stroke="none" width="6" x="120" y="115" /><rect fill="black" height="1" stroke="none" width="36" x="187" y="115" /><rect fill="black" height="1" stroke="none" width="60" x="28" y="116" /><rect fill="black" height="1" stroke="none" width="6" x="120" y="116" /><rect fill="black" height="1" stroke="none" width="36" x="187" y="116" /><rect fill="black" height="1" stroke="none" width="60" x="28" y="117" /><rect fill="black" height="1" stroke="none" width="6" x="120" y="117" /><rect fill="black" height="1" stroke="none" width="36" x="187" y="117" /><rect fill="black" height="1" stroke="none" width="60" x="28" y="118" /><rect fill="black" height="1" stroke="none" width="31" x="114" y="118" /><rect fill="black" height="1" stroke="none" width="36" x="188" y="118" /><rect fill="black" height="1" stroke="none" width="60" x="28" y="119" /><rect fill="black" height="1" stroke="none" width="33" x="113" y="119" /><rect fill="black" height="1" stroke="none" width="36" x="188" y="119" /><rect fill="black" height="1" stroke="none" width="59" x="28" y="120" /><rect fill="black" height="1" stroke="none" width="33" x="113" y="120" /><rect fill="black" height="1" stroke="none" width="36" x="188" y="120" /><rect fill="black" height="1" stroke="none" width="58" x="29" y="121" /><rect fill="black" height="1" stroke="none" width="32" x="114" y="121" /><rect fill="black" height="1" stroke="none" width="36" x="188" y="121" /><rect fill="black" height="1" stroke="none" width="57" x="30" y="122" /><rect fill="black" height="1" stroke="none" width="32" x="114" y="122" /><rect fill="black" height="1" stroke="none" width="36" x="188" y="122" /><rect fill="black" height="1" stroke="none" width="56" x="31" y="123" /><rect fill="black" height="1" stroke="none" width="29" x="115" y="123" /><rect fill="black" height="1" stroke="none" width="36" x="188" y="123" /><rect fill="black" height="1" stroke="none" width="53" x="33" y="124" /><rect fill="black" height="1" stroke="none" width="7" x="122" y="124" /><rect fill="black" height="1" stroke="none" width="35" x="189" y="124" /><rect fill="black" height="1" stroke="none" width="51" x="35" y="125" /><rect fill="black" height="1" stroke="none" width="7" x="123" y="125" /><rect fill="black" height="1" stroke="none" width="36" x="189" y="125" /><rect fill="black" height="1" stroke="none" width="50" x="36" y="126" /><rect fill="black" height="1" stroke="none" width="8" x="123" y="126" /><rect fill="black" height="1" stroke="none" width="36" x="189" y="126" /><rect fill="black" height="1" stroke="none" width="48" x="38" y="127" /><rect fill="black" height="1" stroke="none" width="8" x="124" y="127" /><rect fill="black" height="1" stroke="none" width="36" x="189" y="127" /><rect fill="black" height="1" stroke="none" width="45" x="41" y="128" /><rect fill="black" height="1" stroke="none" width="10" x="124" y="128" /><rect fill="black" height="1" stroke="none" width="36" x="189" y="128" /><rect fill="black" height="1" stroke="none" width="43" x="43" y="129" /><rect fill="black" height="1" stroke="none" width="11" x="125" y="129" /><rect fill="black" height="1" stroke="none" width="36" x="189" y="129" /><rect fill="black" height="1" stroke="none" width="41" x="45" y="130" /><rect fill="black" height="1" stroke="none" width="1" x="87" y="130" /><rect fill="black" height="1" stroke="none" width="12" x="126" y="130" /><rect fill="black" height="1" stroke="none" width="4" x="147" y="130" /><rect fill="black" height="1" stroke="none" width="37" x="189" y="130" /><rect fill="black" height="1" stroke="none" width="40" x="46" y="131" /><rect fill="black" height="1" stroke="none" width="1" x="87" y="131" /><rect fill="black" height="1" stroke="none" width="25" x="127" y="131" /><rect fill="black" height="1" stroke="none" width="38" x="189" y="131" /><rect fill="black" height="1" stroke="none" width="38" x="48" y="132" /><rect fill="black" height="1" stroke="none" width="1" x="87" y="132" /><rect fill="black" height="1" stroke="none" width="24" x="128" y="132" /><rect fill="black" height="1" stroke="none" width="39" x="189" y="132" /><rect fill="black" height="1" stroke="none" width="37" x="49" y="133" /><rect fill="black" height="1" stroke="none" width="1" x="87" y="133" /><rect fill="black" height="1" stroke="none" width="22" x="130" y="133" /><rect fill="black" height="1" stroke="none" width="41" x="189" y="133" /><rect fill="black" height="1" stroke="none" width="35" x="51" y="134" /><rect fill="black" height="1" stroke="none" width="1" x="87" y="134" /><rect fill="black" height="1" stroke="none" width="21" x="131" y="134" /><rect fill="black" height="1" stroke="none" width="43" x="189" y="134" /><rect fill="black" height="1" stroke="none" width="35" x="51" y="135" /><rect fill="black" height="1" stroke="none" width="17" x="134" y="135" /><rect fill="black" height="1" stroke="none" width="44" x="189" y="135" /><rect fill="black" height="1" stroke="none" width="35" x="51" y="136" /><rect fill="black" height="1" stroke="none" width="1" x="87" y="136" /><rect fill="black" height="1" stroke="none" width="12" x="136" y="136" /><rect fill="black" height="1" stroke="none" width="46" x="189" y="136" /><rect fill="black" height="1" stroke="none" width="35" x="51" y="137" /><rect fill="black" height="1" stroke="none" width="48" x="189" y="137" /><rect fill="black" height="1" stroke="none" width="35" x="51" y="138" /><rect fill="black" height="1" stroke="none" width="50" x="189" y="138" /><rect fill="black" height="1" stroke="none" width="35" x="51" y="139" /><rect fill="black" height="1" stroke="none" width="51" x="189" y="139" /><rect fill="black" height="1" stroke="none" width="35" x="51" y="140" /><rect fill="black" height="1" stroke="none" width="54" x="188" y="140" /><rect fill="black" height="1" stroke="none" width="36" x="51" y="141" /><rect fill="black" height="1" stroke="none" width="56" x="188" y="141" /><rect fill="black" height="1" stroke="none" width="35" x="52" y="142" /><rect fill="black" height="1" stroke="none" width="57" x="188" y="142" /><rect fill="black" height="1" stroke="none" width="35" x="52" y="143" /><rect fill="black" height="1" stroke="none" width="58" x="188" y="143" /><rect fill="black" height="1" stroke="none" width="35" x="52" y="144" /><rect fill="black" height="1" stroke="none" width="58" x="189" y="144" /><rect fill="black" height="1" stroke="none" width="36" x="52" y="145" /><rect fill="black" height="1" stroke="none" width="60" x="188" y="145" /><rect fill="black" height="1" stroke="none" width="36" x="52" y="146" /><rect fill="black" height="1" stroke="none" width="37" x="101" y="146" /><rect fill="black" height="1" stroke="none" width="60" x="188" y="146" /><rect fill="black" height="1" stroke="none" width="36" x="52" y="147" /><rect fill="black" height="1" stroke="none" width="39" x="100" y="147" /><rect fill="black" height="1" stroke="none" width="60" x="188" y="147" /><rect fill="black" height="1" stroke="none" width="36" x="53" y="148" /><rect fill="black" height="1" stroke="none" width="41" x="99" y="148" /><rect fill="black" height="1" stroke="none" width="61" x="187" y="148" /><rect fill="black" height="1" stroke="none" width="36" x="53" y="149" /><rect fill="black" height="1" stroke="none" width="41" x="99" y="149" /><rect fill="black" height="1" stroke="none" width="61" x="187" y="149" /><rect fill="black" height="1" stroke="none" width="36" x="53" y="150" /><rect fill="black" height="1" stroke="none" width="41" x="99" y="150" /><rect fill="black" height="1" stroke="none" width="61" x="187" y="150" /><rect fill="black" height="1" stroke="none" width="36" x="53" y="151" /><rect fill="black" height="1" stroke="none" width="39" x="100" y="151" /><rect fill="black" height="1" stroke="none" width="61" x="186" y="151" /><rect fill="black" height="1" stroke="none" width="37" x="53" y="152" /><rect fill="black" height="1" stroke="none" width="1" x="103" y="152" /><rect fill="black" height="1" stroke="none" width="61" x="186" y="152" /><rect fill="black" height="1" stroke="none" width="37" x="53" y="153" /><rect fill="black" height="1" stroke="none" width="62" x="185" y="153" /><rect fill="black" height="1" stroke="none" width="38" x="53" y="154" /><rect fill="black" height="1" stroke="none" width="61" x="185" y="154" /><rect fill="black" height="1" stroke="none" width="38" x="53" y="155" /><rect fill="black" height="1" stroke="none" width="62" x="184" y="155" /><rect fill="black" height="1" stroke="none" width="39" x="53" y="156" /><rect fill="black" height="1" stroke="none" width="62" x="184" y="156" /><rect fill="black" height="1" stroke="none" width="40" x="53" y="157" /><rect fill="black" height="1" stroke="none" width="63" x="183" y="157" /><rect fill="black" height="1" stroke="none" width="40" x="53" y="158" /><rect fill="black" height="1" stroke="none" width="63" x="182" y="158" /><rect fill="black" height="1" stroke="none" width="42" x="52" y="159" /><rect fill="black" height="1" stroke="none" width="72" x="101" y="159" /><rect fill="black" height="1" stroke="none" width="63" x="182" y="159" /><rect fill="black" height="1" stroke="none" width="43" x="51" y="160" /><rect fill="black" height="1" stroke="none" width="74" x="100" y="160" /><rect fill="black" height="1" stroke="none" width="1" x="178" y="160" /><rect fill="black" height="1" stroke="none" width="64" x="181" y="160" /><rect fill="black" height="1" stroke="none" width="46" x="50" y="161" /><rect fill="black" height="1" stroke="none" width="74" x="100" y="161" /><rect fill="black" height="1" stroke="none" width="65" x="180" y="161" /><rect fill="black" height="1" stroke="none" width="47" x="49" y="162" /><rect fill="black" height="1" stroke="none" width="75" x="99" y="162" /><rect fill="black" height="1" stroke="none" width="1" x="176" y="162" /><rect fill="black" height="1" stroke="none" width="64" x="180" y="162" /><rect fill="black" height="1" stroke="none" width="48" x="48" y="163" /><rect fill="black" height="1" stroke="none" width="74" x="100" y="163" /><rect fill="black" height="1" stroke="none" width="65" x="179" y="163" /><rect fill="black" height="1" stroke="none" width="50" x="47" y="164" /><rect fill="black" height="1" stroke="none" width="72" x="101" y="164" /><rect fill="black" height="1" stroke="none" width="66" x="178" y="164" /><rect fill="black" height="1" stroke="none" width="52" x="46" y="165" /><rect fill="black" height="1" stroke="none" width="67" x="177" y="165" /><rect fill="black" height="1" stroke="none" width="53" x="45" y="166" /><rect fill="black" height="1" stroke="none" width="67" x="177" y="166" /><rect fill="black" height="1" stroke="none" width="54" x="45" y="167" /><rect fill="black" height="1" stroke="none" width="67" x="176" y="167" /><rect fill="black" height="1" stroke="none" width="56" x="44" y="168" /><rect fill="black" height="1" stroke="none" width="68" x="175" y="168" /><rect fill="black" height="1" stroke="none" width="58" x="43" y="169" /><rect fill="black" height="1" stroke="none" width="69" x="174" y="169" /><rect fill="black" height="1" stroke="none" width="60" x="42" y="170" /><rect fill="black" height="1" stroke="none" width="1" x="170" y="170" /><rect fill="black" height="1" stroke="none" width="70" x="172" y="170" /><rect fill="black" height="1" stroke="none" width="62" x="41" y="171" /><rect fill="black" height="1" stroke="none" width="70" x="171" y="171" /><rect fill="black" height="1" stroke="none" width="65" x="40" y="172" /><rect fill="black" height="1" stroke="none" width="61" x="107" y="172" /><rect fill="black" height="1" stroke="none" width="70" x="170" y="172" /><rect fill="black" height="1" stroke="none" width="67" x="39" y="173" /><rect fill="black" height="1" stroke="none" width="58" x="108" y="173" /><rect fill="black" height="1" stroke="none" width="57" x="169" y="173" /><rect fill="black" height="1" stroke="none" width="70" x="38" y="174" /><rect fill="black" height="1" stroke="none" width="55" x="110" y="174" /><rect fill="black" height="1" stroke="none" width="47" x="167" y="174" /><rect fill="black" height="1" stroke="none" width="72" x="37" y="175" /><rect fill="black" height="1" stroke="none" width="52" x="111" y="175" /><rect fill="black" height="1" stroke="none" width="48" x="166" y="175" /><rect fill="black" height="1" stroke="none" width="72" x="38" y="176" /><rect fill="black" height="1" stroke="none" width="48" x="113" y="176" /><rect fill="black" height="1" stroke="none" width="49" x="164" y="176" /><rect fill="black" height="1" stroke="none" width="75" x="37" y="177" /><rect fill="black" height="1" stroke="none" width="36" x="116" y="177" /><rect fill="black" height="1" stroke="none" width="7" x="153" y="177" /><rect fill="black" height="1" stroke="none" width="50" x="162" y="177" /><rect fill="black" height="1" stroke="none" width="77" x="37" y="178" /><rect fill="black" height="1" stroke="none" width="52" x="160" y="178" /><rect fill="black" height="1" stroke="none" width="79" x="37" y="179" /><rect fill="black" height="1" stroke="none" width="52" x="159" y="179" /><rect fill="black" height="1" stroke="none" width="81" x="38" y="180" /><rect fill="black" height="1" stroke="none" width="1" x="151" y="180" /><rect fill="black" height="1" stroke="none" width="53" x="157" y="180" /><rect fill="black" height="1" stroke="none" width="83" x="38" y="181" /><rect fill="black" height="1" stroke="none" width="56" x="154" y="181" /><rect fill="black" height="1" stroke="none" width="86" x="39" y="182" /><rect fill="black" height="1" stroke="none" width="58" x="151" y="182" /><rect fill="black" height="1" stroke="none" width="90" x="39" y="183" /><rect fill="black" height="1" stroke="none" width="61" x="147" y="183" /><rect fill="black" height="1" stroke="none" width="168" x="40" y="184" /><rect fill="black" height="1" stroke="none" width="166" x="41" y="185" /><rect fill="black" height="1" stroke="none" width="164" x="42" y="186" /><rect fill="black" height="1" stroke="none" width="163" x="42" y="187" /><rect fill="black" height="1" stroke="none" width="161" x="43" y="188" /><rect fill="black" height="1" stroke="none" width="161" x="43" y="189" /><rect fill="black" height="1" stroke="none" width="159" x="44" y="190" /><rect fill="black" height="1" stroke="none" width="157" x="45" y="191" /><rect fill="black" height="1" stroke="none" width="157" x="45" y="192" /><rect fill="black" height="1" stroke="none" width="156" x="46" y="193" /><rect fill="black" height="1" stroke="none" width="156" x="46" y="194" /><rect fill="black" height="1" stroke="none" width="155" x="47" y="195" /><rect fill="black" height="1" stroke="none" width="25" x="48" y="196" /><rect fill="black" height="1" stroke="none" width="123" x="79" y="196" /><rect fill="black" height="1" stroke="none" width="22" x="48" y="197" /><rect fill="black" height="1" stroke="none" width="122" x="80" y="197" /><rect fill="black" height="1" stroke="none" width="18" x="49" y="198" /><rect fill="black" height="1" stroke="none" width="122" x="81" y="198" /><rect fill="black" height="1" stroke="none" width="14" x="50" y="199" /><rect fill="black" height="1" stroke="none" width="120" x="83" y="199" /><rect fill="black" height="1" stroke="none" width="11" x="50" y="200" /><rect fill="black" height="1" stroke="none" width="119" x="84" y="200" /><rect fill="black" height="1" stroke="none" width="6" x="52" y="201" /><rect fill="black" height="1" stroke="none" width="119" x="85" y="201" /><rect fill="black" height="1" stroke="none" width="117" x="86" y="202" /><rect fill="black" height="1" stroke="none" width="115" x="88" y="203" /><rect fill="black" height="1" stroke="none" width="115" x="89" y="204" /><rect fill="black" height="1" stroke="none" width="113" x="91" y="205" /><rect fill="black" height="1" stroke="none" width="111" x="93" y="206" /><rect fill="black" height="1" stroke="none" width="111" x="94" y="207" /><rect fill="black" height="1" stroke="none" width="110" x="95" y="208" /><rect fill="black" height="1" stroke="none" width="109" x="96" y="209" /><rect fill="black" height="1" stroke="none" width="110" x="96" y="210" /><rect fill="black" height="1" stroke="none" width="110" x="96" y="211" /><rect fill="black" height="1" stroke="none" width="110" x="96" y="212" /><rect fill="black" height="1" stroke="none" width="110" x="96" y="213" /><rect fill="black" height="1" stroke="none" width="111" x="96" y="214" /><rect fill="black" height="1" stroke="none" width="110" x="97" y="215" /><rect fill="black" height="1" stroke="none" width="110" x="97" y="216" /><rect fill="black" height="1" stroke="none" width="61" x="97" y="217" /><rect fill="black" height="1" stroke="none" width="42" x="164" y="217" /><rect fill="black" height="1" stroke="none" width="52" x="97" y="218" /><rect fill="black" height="1" stroke="none" width="40" x="166" y="218" /><rect fill="black" height="1" stroke="none" width="43" x="97" y="219" /><rect fill="black" height="1" stroke="none" width="38" x="167" y="219" /><rect fill="black" height="1" stroke="none" width="42" x="97" y="220" /><rect fill="black" height="1" stroke="none" width="36" x="168" y="220" /><rect fill="black" height="1" stroke="none" width="42" x="97" y="221" /><rect fill="black" height="1" stroke="none" width="33" x="169" y="221" /><rect fill="black" height="1" stroke="none" width="41" x="97" y="222" /><rect fill="black" height="1" stroke="none" width="31" x="170" y="222" /><rect fill="black" height="1" stroke="none" width="41" x="97" y="223" /><rect fill="black" height="1" stroke="none" width="28" x="171" y="223" /><rect fill="black" height="1" stroke="none" width="40" x="97" y="224" /><rect fill="black" height="1" stroke="none" width="25" x="172" y="224" /><rect fill="black" height="1" stroke="none" width="39" x="97" y="225" /><rect fill="black" height="1" stroke="none" width="22" x="173" y="225" /><rect fill="black" height="1" stroke="none" width="39" x="97" y="226" /><rect fill="black" height="1" stroke="none" width="19" x="174" y="226" /><rect fill="black" height="1" stroke="none" width="38" x="97" y="227" /><rect fill="black" height="1" stroke="none" width="17" x="174" y="227" /><rect fill="black" height="1" stroke="none" width="38" x="97" y="228" /><rect fill="black" height="1" stroke="none" width="15" x="175" y="228" /><rect fill="black" height="1" stroke="none" width="37" x="97" y="229" /><rect fill="black" height="1" stroke="none" width="13" x="176" y="229" /><rect fill="black" height="1" stroke="none" width="37" x="97" y="230" /><rect fill="black" height="1" stroke="none" width="10" x="177" y="230" /><rect fill="black" height="1" stroke="none" width="36" x="97" y="231" /><rect fill="black" height="1" stroke="none" width="7" x="179" y="231" /><rect fill="black" height="1" stroke="none" width="36" x="97" y="232" /><rect fill="black" height="1" stroke="none" width="4" x="180" y="232" /><rect fill="black" height="1" stroke="none" width="34" x="98" y="233" /><rect fill="black" height="1" stroke="none" width="34" x="98" y="234" /><rect fill="black" height="1" stroke="none" width="32" x="99" y="235" /><rect fill="black" height="1" stroke="none" width="30" x="100" y="236" /><rect fill="black" height="1" stroke="none" width="28" x="102" y="237" /><rect fill="black" height="1" stroke="none" width="23" x="106" y="238" /><rect fill="black" height="1" stroke="none" width="19" x="110" y="239" /><rect fill="black" height="1" stroke="none" width="15" x="113" y="240" /><rect fill="black" height="1" stroke="none" width="10" x="117" y="241" /></g></svg>